<svg xmlns="http://www.w3.org/2000/svg" xmlns:xlink="http://www.w3.org/1999/xlink" width="1459.032" height="225.456" viewBox="0 0 1459.032 225.456">
  <defs>
    <filter id="Logo" x="0" y="0" width="1459.032" height="225.456" filterUnits="userSpaceOnUse">
      <feOffset dy="3" input="SourceAlpha"/>
      <feGaussianBlur stdDeviation="3" result="blur"/>
      <feFlood flood-opacity="0.161"/>
      <feComposite operator="in" in2="blur"/>
      <feComposite in="SourceGraphic"/>
    </filter>
  </defs>
  <g transform="matrix(1, 0, 0, 1, 0, 0)" filter="url(#Logo)">
    <path id="Logo-2" data-name="Logo" d="M1284.575,39.992h51.562l.167,157.86a3.7,3.7,0,0,0,3.7,3.7l29.53-.021a3.69,3.69,0,0,0,3.7-3.7l-.167-157.839h64.656a2.272,2.272,0,0,0,1.775-3.7L1417.353,8.6a9.774,9.774,0,0,0-7.623-3.676H1284.575a3.69,3.69,0,0,0-3.7,3.7V36.317a3.7,3.7,0,0,0,3.7,3.676M40.2,197.873,191.44,8.625a2.278,2.278,0,0,0-1.775-3.7h-37.82A9.743,9.743,0,0,0,144.223,8.6l-107.3,134.24V8.6a3.69,3.69,0,0,0-3.7-3.7H3.7A3.69,3.69,0,0,0,0,8.6V197.852a3.69,3.69,0,0,0,3.7,3.7H32.579a9.774,9.774,0,0,0,7.623-3.676m106.632,0,52.021-65.094,52.021,65.094a9.784,9.784,0,0,0,7.643,3.676H287.4a3.69,3.69,0,0,0,3.7-3.7V8.6a3.7,3.7,0,0,0-3.7-3.7H263.176a19.57,19.57,0,0,0-15.266,7.33L99.594,197.831a2.278,2.278,0,0,0,1.775,3.7h37.82a9.7,9.7,0,0,0,7.643-3.655M254.154,59.6v87.189L219.32,103.207,254.154,59.6Zm844.473,138.229L947.387,8.583a9.773,9.773,0,0,0-7.622-3.676h-28.9a3.69,3.69,0,0,0-3.7,3.7V197.852a3.69,3.69,0,0,0,3.7,3.7h28.882a9.744,9.744,0,0,0,7.623-3.676l52.021-65.094,52.021,65.094a9.773,9.773,0,0,0,7.622,3.676h37.82a2.29,2.29,0,0,0,1.775-3.717M978.9,103.207l-34.855,43.605V59.6L978.9,103.207ZM562.71,0A103.228,103.228,0,1,0,665.938,103.228,103.226,103.226,0,0,0,562.71,0m0,171.371c-36.63,0-66.306-30.511-66.306-68.143S526.08,35.064,562.71,35.064s66.306,30.511,66.306,68.164c.021,37.632-29.676,68.143-66.306,68.143M1218.311,8.6v134.24L1111.011,8.583a9.774,9.774,0,0,0-7.623-3.676h-28.924a3.7,3.7,0,0,0-3.7,3.7V99.8a9.7,9.7,0,0,0,2.151,6.1l30.72,38.447a2.286,2.286,0,0,0,4.072-1.42V63.57l107.321,134.3a9.774,9.774,0,0,0,7.623,3.676h28.882a3.69,3.69,0,0,0,3.7-3.7V8.6a3.7,3.7,0,0,0-3.7-3.7h-29.53a3.7,3.7,0,0,0-3.7,3.7M857.525,49.62V8.6a3.69,3.69,0,0,0-3.7-3.7H702.693A3.69,3.69,0,0,0,699,8.6V197.852a3.69,3.69,0,0,0,3.7,3.7h29.529a3.69,3.69,0,0,0,3.7-3.7V40.013H820.6L763.444,111.56a3.733,3.733,0,0,0,0,4.615l65.3,81.718a9.773,9.773,0,0,0,7.622,3.676h37.82a2.278,2.278,0,0,0,1.775-3.7L808.845,113.9l46.529-58.14a10.029,10.029,0,0,0,2.151-6.14M339.13,201.548h87.628a9.743,9.743,0,0,0,7.623-3.676l22.137-27.713a2.278,2.278,0,0,0-1.775-3.7H372.356V8.6a3.69,3.69,0,0,0-3.7-3.7H339.13a3.69,3.69,0,0,0-3.7,3.7V197.852a3.717,3.717,0,0,0,3.7,3.7" transform="translate(9.5 6.5)" fill="none" stroke="#fff" stroke-width="1" opacity="0.5"/>
  </g>
</svg>