<svg xmlns="http://www.w3.org/2000/svg" xmlns:xlink="http://www.w3.org/1999/xlink" width="708" height="116.927" viewBox="0 0 708 116.927">
  <defs>
    <filter id="Logo" x="0" y="0" width="708" height="116.927" filterUnits="userSpaceOnUse">
      <feOffset dy="3" input="SourceAlpha"/>
      <feGaussianBlur stdDeviation="3" result="blur"/>
      <feFlood flood-opacity="0.161"/>
      <feComposite operator="in" in2="blur"/>
      <feComposite in="SourceGraphic"/>
    </filter>
  </defs>
  <g transform="matrix(1, 0, 0, 1, 0, 0)" filter="url(#Logo)">
    <path d="M615.525,19.163h24.707l.08,75.641a1.774,1.774,0,0,0,1.771,1.771l14.15-.01A1.768,1.768,0,0,0,658,94.794l-.08-75.631H688.9a1.089,1.089,0,0,0,.851-1.771L679.148,4.123A4.683,4.683,0,0,0,675.5,2.362h-59.97a1.768,1.768,0,0,0-1.771,1.771V17.4a1.772,1.772,0,0,0,1.771,1.761M19.263,94.814,91.732,4.133a1.091,1.091,0,0,0-.851-1.771H72.759a4.669,4.669,0,0,0-3.652,1.761L17.692,68.446V4.123a1.768,1.768,0,0,0-1.771-1.771H1.771A1.768,1.768,0,0,0,0,4.123V94.8a1.768,1.768,0,0,0,1.771,1.771H15.611a4.684,4.684,0,0,0,3.652-1.761m51.094,0L95.284,63.623l24.927,31.191a4.688,4.688,0,0,0,3.662,1.761h13.839a1.768,1.768,0,0,0,1.771-1.771V4.123a1.774,1.774,0,0,0-1.771-1.771H126.105a9.377,9.377,0,0,0-7.315,3.512L47.722,94.794a1.091,1.091,0,0,0,.851,1.771H66.695a4.648,4.648,0,0,0,3.662-1.751m51.425-66.255V70.337L105.091,49.453l16.691-20.894ZM526.425,94.794,453.956,4.113A4.683,4.683,0,0,0,450.3,2.352H436.454a1.768,1.768,0,0,0-1.771,1.771V94.8a1.768,1.768,0,0,0,1.771,1.771h13.839a4.669,4.669,0,0,0,3.652-1.761l24.927-31.191L503.8,94.814a4.683,4.683,0,0,0,3.652,1.761h18.122a1.1,1.1,0,0,0,.851-1.781M469.056,49.453l-16.7,20.894V28.559l16.7,20.894ZM269.632,0A49.463,49.463,0,1,0,319.1,49.463,49.463,49.463,0,0,0,269.632,0m0,82.115c-17.552,0-31.771-14.62-31.771-32.652S252.08,16.8,269.632,16.8,301.4,31.421,301.4,49.463s-14.22,32.652-31.771,32.652M583.774,4.123V68.446L532.359,4.113a4.683,4.683,0,0,0-3.653-1.761H514.847a1.775,1.775,0,0,0-1.771,1.771v43.7a4.647,4.647,0,0,0,1.031,2.922l14.72,18.422a1.1,1.1,0,0,0,1.951-.68V30.461L582.2,94.814a4.683,4.683,0,0,0,3.653,1.761h13.839a1.768,1.768,0,0,0,1.771-1.771V4.123a1.774,1.774,0,0,0-1.771-1.771h-14.15a1.774,1.774,0,0,0-1.771,1.771M410.9,23.776V4.123a1.768,1.768,0,0,0-1.771-1.771H336.707a1.768,1.768,0,0,0-1.771,1.771V94.8a1.768,1.768,0,0,0,1.771,1.771h14.15a1.768,1.768,0,0,0,1.771-1.771V19.173h40.577L365.817,53.456a1.789,1.789,0,0,0,0,2.211l31.291,39.156a4.683,4.683,0,0,0,3.652,1.761h18.122a1.091,1.091,0,0,0,.851-1.771L387.572,54.577l22.3-27.859a4.805,4.805,0,0,0,1.031-2.942m-248.4,72.8h41.988a4.669,4.669,0,0,0,3.652-1.761l10.607-13.279a1.091,1.091,0,0,0-.851-1.771H178.42V4.123a1.768,1.768,0,0,0-1.771-1.771H162.5a1.768,1.768,0,0,0-1.771,1.771V94.8a1.781,1.781,0,0,0,1.771,1.771" transform="translate(9 6)" fill="#ff4655"/>
  </g>
</svg>